<svg xmlns="http://www.w3.org/2000/svg" xmlns:xlink="http://www.w3.org/1999/xlink" width="500" zoomAndPan="magnify" viewBox="0 0 375 374.999991" height="500" preserveAspectRatio="xMidYMid meet" version="1.2"><defs><clipPath id="79cce3b7b0"><path d="M 25.4375 52 L 344 52 L 344 327.011719 L 25.4375 327.011719 Z M 25.4375 52 "/></clipPath><clipPath id="631bf8fbdd"><path d="M 38 91 L 359.9375 91 L 359.9375 326 L 38 326 Z M 38 91 "/></clipPath></defs><g id="e0b4784109"><path style=" stroke:none;fill-rule:nonzero;fill:#ff2273;fill-opacity:1;" d="M 308.761719 113.25 L 308.539062 112.726562 L 307.574219 112.554688 C 303.726562 93.890625 288.613281 78.957031 269.0625 74.09375 C 264.917969 68.023438 259.667969 60.515625 257.898438 58.789062 C 256.292969 57.210938 252.320312 56.238281 247.179688 56.113281 C 246.828125 55.667969 246.511719 55.300781 246.300781 55.089844 C 244.171875 53.011719 233.777344 52.210938 224.082031 56.175781 C 214.386719 60.140625 211.660156 63.90625 210.9375 67.132812 C 210.835938 67.613281 210.78125 68.351562 210.761719 69.226562 C 208.726562 71.367188 207.457031 73.632812 206.914062 76.078125 C 206.195312 79.316406 207.011719 89.621094 207.59375 95.757812 L 109.765625 125.394531 L 109.121094 125.726562 C 105.859375 124.066406 102.402344 122.707031 98.789062 121.675781 C 95.035156 115.574219 90.5 108.394531 88.894531 106.664062 C 87.363281 105.011719 83.371094 103.847656 78.328125 103.472656 C 77.992188 103.011719 77.695312 102.625 77.488281 102.402344 C 75.46875 100.226562 65.125 98.917969 55.246094 102.402344 C 45.363281 105.890625 42.457031 109.519531 41.585938 112.707031 C 41.457031 113.179688 41.367188 113.914062 41.308594 114.789062 C 39.167969 116.828125 37.785156 119.03125 37.125 121.441406 C 36.242188 124.6875 36.574219 135.277344 36.855469 141.398438 C 31.113281 148.972656 27.503906 158.039062 26.832031 167.855469 C 26.832031 167.855469 33.441406 276.640625 35.597656 292.976562 C 38.167969 312.398438 50.894531 324.792969 70.527344 325.929688 C 71.554688 325.988281 83.46875 325.859375 87.734375 324.25 C 99.972656 319.628906 108.332031 308.644531 111.792969 292.730469 C 117.503906 266.457031 129.765625 215.496094 133.585938 211.945312 C 137.3125 208.488281 162.003906 200.476562 178.339844 195.265625 L 184.269531 193.304688 C 190.902344 191.175781 197.53125 188.921875 203.460938 186.9375 C 212.800781 183.808594 220.871094 181.089844 223.699219 180.523438 C 225.140625 180.234375 226.9375 179.871094 228.878906 179.871094 C 233.878906 179.871094 238.011719 182.390625 241.503906 187.589844 C 253.652344 205.683594 283.980469 247.769531 303.113281 247.769531 C 303.378906 247.769531 303.644531 247.757812 303.90625 247.742188 C 328.441406 246.25 341.957031 234.273438 341.957031 214.023438 C 341.957031 191.347656 310.117188 116.425781 308.761719 113.25 Z M 308.761719 113.25 "/><g clip-rule="nonzero" clip-path="url(#79cce3b7b0)"><path style=" stroke:none;fill-rule:nonzero;fill:#000000;fill-opacity:1;" d="M 71.261719 327.011719 C 70.867188 327.011719 70.59375 327.007812 70.46875 326.996094 C 50.621094 325.847656 37.191406 313.183594 34.539062 293.117188 C 32.398438 276.933594 25.828125 169.007812 25.761719 167.917969 C 26.417969 158.1875 29.878906 148.953125 35.769531 141.0625 C 35.433594 133.644531 35.230469 124.328125 36.09375 121.160156 C 36.769531 118.691406 38.171875 116.386719 40.269531 114.304688 C 40.335938 113.492188 40.429688 112.875 40.550781 112.425781 C 41.789062 107.914062 46.34375 104.410156 54.890625 101.394531 C 60.074219 99.566406 64.839844 99.183594 67.925781 99.183594 C 72.882812 99.183594 76.851562 100.136719 78.277344 101.675781 C 78.4375 101.851562 78.652344 102.121094 78.898438 102.445312 C 84.117188 102.890625 88.035156 104.15625 89.683594 105.9375 C 91.015625 107.375 94.316406 112.363281 99.484375 120.761719 C 102.808594 121.734375 106.042969 123 109.121094 124.527344 L 109.277344 124.441406 L 206.449219 94.988281 C 205.78125 87.78125 205.183594 78.945312 205.871094 75.84375 C 206.433594 73.308594 207.6875 70.996094 209.703125 68.792969 C 209.734375 67.980469 209.796875 67.359375 209.894531 66.90625 C 210.914062 62.335938 215.292969 58.613281 223.675781 55.183594 C 228.234375 53.324219 233.433594 52.296875 238.324219 52.296875 C 242.488281 52.296875 245.75 53.054688 247.050781 54.324219 C 247.222656 54.488281 247.449219 54.746094 247.703125 55.058594 C 250.988281 55.175781 256.316406 55.734375 258.648438 58.027344 C 260.097656 59.4375 263.820312 64.527344 269.714844 73.15625 C 289.253906 78.164062 304.367188 93.179688 308.46875 111.625 L 309.296875 111.773438 L 309.75 112.828125 C 311.109375 116.015625 343.03125 191.140625 343.03125 214.023438 C 343.03125 234.921875 329.160156 247.277344 303.976562 248.808594 C 303.695312 248.828125 303.40625 248.835938 303.117188 248.835938 C 283.460938 248.835938 252.863281 206.417969 240.617188 188.179688 C 237.339844 183.308594 233.503906 180.9375 228.878906 180.9375 C 227.066406 180.9375 225.347656 181.28125 223.964844 181.558594 C 221.265625 182.101562 213.695312 184.636719 204.933594 187.570312 L 199.988281 189.230469 C 195.089844 190.875 189.847656 192.636719 184.597656 194.320312 L 178.679688 196.28125 C 166.523438 200.160156 138.082031 209.234375 134.320312 212.726562 C 131.070312 215.746094 119.558594 262.085938 112.84375 292.957031 C 109.285156 309.320312 100.734375 320.488281 88.121094 325.25 C 83.503906 326.992188 71.382812 327.011719 71.261719 327.011719 Z M 67.925781 101.324219 C 65.007812 101.324219 60.5 101.683594 55.605469 103.414062 C 45.320312 107.042969 43.269531 110.617188 42.617188 112.988281 C 42.546875 113.25 42.449219 113.78125 42.378906 114.859375 L 42.347656 115.277344 L 42.046875 115.5625 C 40.042969 117.476562 38.769531 119.492188 38.160156 121.726562 C 37.542969 123.996094 37.457031 131.148438 37.929688 141.347656 L 37.945312 141.734375 L 37.710938 142.042969 C 31.929688 149.671875 28.535156 158.621094 27.902344 167.929688 C 27.96875 168.878906 34.535156 276.726562 36.660156 292.839844 C 39.207031 312.089844 51.574219 323.761719 70.59375 324.863281 C 70.699219 324.871094 70.929688 324.871094 71.261719 324.871094 C 74.320312 324.871094 83.851562 324.578125 87.363281 323.25 C 99.265625 318.757812 107.351562 308.125 110.746094 292.503906 C 114.25 276.410156 128.257812 215.4375 132.859375 211.164062 C 136.476562 207.804688 156.699219 201.050781 178.015625 194.246094 L 183.933594 192.289062 C 189.179688 190.605469 194.414062 188.84375 199.304688 187.199219 L 204.25 185.542969 C 213.082031 182.585938 220.707031 180.03125 223.488281 179.472656 C 225.019531 179.167969 226.855469 178.800781 228.875 178.800781 C 234.265625 178.800781 238.6875 181.480469 242.390625 186.988281 C 254.449219 204.941406 284.492188 246.695312 303.113281 246.695312 C 303.359375 246.695312 303.601562 246.6875 303.839844 246.671875 C 327.730469 245.21875 340.886719 233.625 340.886719 214.023438 C 340.886719 191.59375 309.191406 116.984375 307.78125 113.675781 L 306.671875 113.480469 L 306.523438 112.769531 C 302.792969 94.675781 287.984375 79.902344 268.800781 75.136719 L 268.40625 75.035156 L 268.175781 74.699219 C 262.390625 66.230469 258.476562 60.851562 257.148438 59.558594 C 256.074219 58.5 252.882812 57.324219 247.152344 57.183594 L 246.652344 57.171875 L 246.34375 56.785156 C 246.019531 56.382812 245.742188 56.046875 245.546875 55.851562 C 244.851562 55.171875 242.289062 54.4375 238.320312 54.4375 C 235.648438 54.4375 230.292969 54.792969 224.484375 57.167969 C 214.398438 61.289062 212.515625 64.964844 211.980469 67.367188 C 211.925781 67.625 211.851562 68.167969 211.828125 69.246094 L 211.820312 69.664062 L 211.53125 69.964844 C 209.628906 71.96875 208.457031 74.046875 207.957031 76.308594 C 207.449219 78.578125 207.707031 85.632812 208.65625 95.65625 L 208.738281 96.527344 L 110.078125 126.421875 L 109.125 126.929688 L 108.636719 126.679688 C 105.414062 125.042969 102.003906 123.707031 98.496094 122.707031 L 98.09375 122.59375 L 97.878906 122.238281 C 92.800781 113.984375 89.332031 108.710938 88.113281 107.394531 C 86.8125 105.988281 83.03125 104.898438 78.246094 104.542969 L 77.753906 104.503906 L 77.460938 104.105469 C 77.15625 103.683594 76.890625 103.332031 76.699219 103.128906 C 75.890625 102.253906 72.539062 101.324219 67.925781 101.324219 Z M 67.925781 101.324219 "/></g><path style=" stroke:none;fill-rule:nonzero;fill:#000000;fill-opacity:1;" d="M 241.503906 187.585938 C 243.214844 190.132812 245.300781 193.171875 247.648438 196.484375 C 248.1875 197.246094 249.277344 195.546875 249.320312 195.089844 C 249.480469 193.285156 247.929688 191.671875 247.546875 189.984375 C 247.039062 187.765625 248.945312 186.128906 251.136719 187.152344 C 254.292969 188.613281 256.109375 191.988281 259.074219 193.714844 C 262.199219 195.535156 265.429688 195.027344 268.328125 192.960938 C 272.386719 190.058594 273.996094 185.453125 272.78125 180.605469 C 270.679688 172.234375 264.757812 166.378906 257.125 162.652344 C 240.863281 154.722656 220.96875 154.71875 209.792969 170.65625 C 206.160156 175.832031 203.472656 181.585938 201.480469 187.597656 C 202.140625 187.375 202.820312 187.148438 203.464844 186.933594 C 212.804688 183.804688 220.875 181.085938 223.703125 180.519531 C 225.144531 180.230469 226.941406 179.867188 228.878906 179.867188 C 233.882812 179.871094 238.011719 182.390625 241.503906 187.585938 Z M 241.503906 187.585938 "/><path style=" stroke:none;fill-rule:nonzero;fill:#000000;fill-opacity:1;" d="M 323.519531 232.988281 C 315.238281 227.773438 292.128906 218.679688 293.320312 236.609375 C 293.472656 238.890625 287.992188 236.363281 287.085938 236.0625 C 285.757812 235.617188 284.421875 235.1875 283.046875 234.914062 C 282.628906 234.832031 279.976562 234.949219 279.84375 234.828125 C 288.136719 242.464844 296.328125 247.765625 303.113281 247.765625 C 303.382812 247.765625 303.644531 247.757812 303.90625 247.738281 C 315.257812 247.050781 324.214844 244.089844 330.601562 239.132812 C 328.457031 236.761719 326.117188 234.625 323.519531 232.988281 Z M 323.519531 232.988281 "/><path style=" stroke:none;fill-rule:nonzero;fill:#000000;fill-opacity:1;" d="M 324.730469 246.21875 L 307.277344 248.492188 L 316.425781 231.511719 Z M 324.730469 246.21875 "/><path style=" stroke:none;fill-rule:nonzero;fill:#000000;fill-opacity:1;" d="M 200.6875 97.851562 C 207.375 102.578125 215.472656 105.472656 223.523438 106.589844 C 237.738281 108.558594 249.582031 105.085938 259.523438 94.554688 C 264.917969 88.839844 270.355469 82.742188 273.273438 75.339844 C 271.890625 74.875 270.492188 74.453125 269.0625 74.097656 C 264.917969 68.023438 259.667969 60.515625 257.898438 58.789062 C 256.292969 57.214844 252.320312 56.242188 247.179688 56.113281 C 246.828125 55.671875 246.511719 55.300781 246.300781 55.089844 C 244.171875 53.015625 233.777344 52.214844 224.082031 56.175781 C 214.386719 60.140625 211.660156 63.910156 210.9375 67.132812 C 210.835938 67.613281 210.78125 68.351562 210.761719 69.226562 C 208.726562 71.367188 207.457031 73.632812 206.914062 76.078125 C 206.195312 79.316406 207.011719 89.621094 207.59375 95.757812 Z M 200.6875 97.851562 "/><path style=" stroke:none;fill-rule:nonzero;fill:#000000;fill-opacity:1;" d="M 93.421875 318.996094 C 84.566406 309.035156 74.910156 297.566406 63.492188 290.464844 C 60.457031 288.582031 57.269531 286.894531 54.332031 284.863281 C 51.105469 282.628906 48.632812 281.953125 46.867188 285.980469 C 46.117188 287.691406 44.691406 292.398438 42.171875 292.398438 C 39.785156 292.398438 39.332031 287.140625 38.410156 285.832031 C 37.089844 283.964844 35.925781 285.519531 35.039062 287.804688 C 35.25 289.988281 35.4375 291.753906 35.597656 292.980469 C 38.167969 312.398438 50.894531 324.796875 70.527344 325.933594 C 71.554688 325.992188 83.816406 325.785156 88.203125 324.042969 C 90.539062 323.113281 92.730469 321.953125 94.773438 320.570312 C 94.316406 320.050781 93.878906 319.515625 93.421875 318.996094 Z M 93.421875 318.996094 "/><path style=" stroke:none;fill-rule:nonzero;fill:#000000;fill-opacity:1;" d="M 81.699219 326.484375 C 84.484375 326.070312 94.773438 324.238281 94.773438 324.238281 L 83.835938 316.746094 Z M 81.699219 326.484375 "/><path style=" stroke:none;fill-rule:nonzero;fill:#000000;fill-opacity:1;" d="M 27.53125 179.226562 C 27.851562 180.019531 28.277344 180.707031 28.867188 181.203125 C 31.527344 183.4375 32.667969 178.992188 33.710938 177.503906 C 34.09375 176.960938 34.890625 176.75 35.394531 177.285156 C 39.214844 181.386719 36.957031 189.910156 43.527344 191.625 C 52.738281 194.03125 58.785156 186.832031 61.550781 178.960938 C 65.847656 166.730469 67.984375 153.949219 73.917969 142.277344 C 79.21875 131.84375 86.460938 123.011719 94.640625 115.03125 C 92.171875 111.144531 89.925781 107.777344 88.894531 106.664062 C 87.363281 105.011719 83.371094 103.847656 78.328125 103.476562 C 77.988281 103.011719 77.695312 102.625 77.488281 102.402344 C 75.46875 100.226562 65.125 98.921875 55.246094 102.402344 C 45.363281 105.890625 42.457031 109.519531 41.585938 112.707031 C 41.457031 113.179688 41.367188 113.914062 41.308594 114.789062 C 39.167969 116.828125 37.785156 119.03125 37.125 121.441406 C 36.242188 124.6875 36.574219 135.277344 36.855469 141.398438 C 31.113281 148.972656 27.503906 158.039062 26.832031 167.855469 C 26.832031 167.855469 27.09375 172.183594 27.53125 179.226562 Z M 27.53125 179.226562 "/><path style=" stroke:none;fill-rule:nonzero;fill:#000000;fill-opacity:1;" d="M 227.445312 80.71875 C 227.445312 80.71875 225.859375 66.460938 226.585938 63.1875 C 227.316406 59.914062 230.082031 56.085938 239.925781 52.066406 C 249.769531 48.042969 260.328125 48.851562 262.480469 50.960938 C 264.636719 53.070312 274.519531 67.9375 274.519531 67.9375 Z M 227.445312 80.71875 "/><path style=" stroke:none;fill-rule:nonzero;fill:#ffd33b;fill-opacity:1;" d="M 224.742188 96.902344 C 224.742188 96.902344 222.535156 77.058594 223.546875 72.5 C 224.558594 67.941406 228.410156 62.617188 242.113281 57.015625 C 255.820312 51.414062 270.515625 52.542969 273.511719 55.480469 C 276.515625 58.414062 290.269531 79.109375 290.269531 79.109375 Z M 224.742188 96.902344 "/><path style=" stroke:none;fill-rule:nonzero;fill:#000000;fill-opacity:1;" d="M 223.8125 98.265625 L 223.675781 97.023438 C 223.585938 96.203125 221.460938 76.945312 222.5 72.269531 C 223.894531 65.972656 230 60.8125 241.707031 56.027344 C 250.332031 52.5 258.273438 51.976562 262.238281 51.976562 C 268.011719 51.976562 272.507812 53 274.257812 54.71875 C 277.308594 57.695312 290.597656 77.667969 291.160156 78.519531 L 291.980469 79.753906 Z M 262.238281 54.113281 C 258.429688 54.113281 250.804688 54.621094 242.519531 58.007812 C 228.066406 63.914062 225.367188 69.238281 224.589844 72.730469 C 223.847656 76.082031 225.015625 89.328125 225.667969 95.542969 L 288.554688 78.46875 C 283.613281 71.066406 274.945312 58.382812 272.761719 56.246094 C 271.679688 55.183594 268.007812 54.113281 262.238281 54.113281 Z M 262.238281 54.113281 "/><path style=" stroke:none;fill-rule:nonzero;fill:#000000;fill-opacity:1;" d="M 54.65625 127.007812 C 54.65625 127.007812 53.769531 112.6875 54.65625 109.453125 C 55.542969 106.21875 58.496094 102.535156 68.527344 98.992188 C 78.554688 95.457031 89.058594 96.78125 91.105469 98.992188 C 93.15625 101.207031 102.300781 116.539062 102.300781 116.539062 Z M 54.65625 127.007812 "/><path style=" stroke:none;fill-rule:nonzero;fill:#ffd33b;fill-opacity:1;" d="M 51.164062 143.039062 C 51.164062 143.039062 49.929688 123.109375 51.164062 118.605469 C 52.398438 114.101562 56.507812 108.972656 70.464844 104.046875 C 84.429688 99.125 99.050781 100.96875 101.898438 104.046875 C 104.753906 107.125 117.488281 128.46875 117.488281 128.46875 Z M 51.164062 143.039062 "/><path style=" stroke:none;fill-rule:nonzero;fill:#000000;fill-opacity:1;" d="M 50.175781 144.351562 L 50.097656 143.105469 C 50.046875 142.285156 48.867188 122.945312 50.132812 118.324219 C 51.835938 112.101562 58.183594 107.246094 70.113281 103.039062 C 77.378906 100.476562 84.058594 99.9375 88.382812 99.9375 C 95.171875 99.9375 100.785156 101.265625 102.6875 103.320312 C 105.585938 106.445312 117.886719 127.046875 118.40625 127.921875 L 119.167969 129.195312 Z M 88.382812 102.078125 C 84.226562 102.078125 77.804688 102.59375 70.824219 105.058594 C 56.097656 110.25 53.140625 115.4375 52.199219 118.886719 C 51.292969 122.199219 51.8125 135.484375 52.160156 141.722656 L 115.804688 127.742188 C 111.230469 120.109375 103.191406 107.015625 101.117188 104.777344 C 99.875 103.433594 95.105469 102.078125 88.382812 102.078125 Z M 88.382812 102.078125 "/><path style=" stroke:none;fill-rule:nonzero;fill:#ffd33b;fill-opacity:1;" d="M 39.554688 166.6875 C 39.554688 166.6875 47.429688 275.503906 49.644531 292.25 C 51.855469 308.996094 62.289062 322.902344 84.105469 324.164062 C 105.917969 325.429688 120.144531 313.105469 124.886719 291.300781 C 129.628906 269.503906 142.910156 213.257812 147.332031 209.148438 C 151.761719 205.042969 181.480469 195.878906 199.183594 190.191406 C 216.886719 184.503906 234.589844 178.183594 239.332031 177.234375 C 244.078125 176.289062 251.742188 174.8125 258.503906 184.871094 C 265.257812 194.929688 300.351562 246.71875 320.902344 245.472656 C 341.449219 244.222656 358.523438 235.375 358.523438 212.308594 C 358.523438 189.242188 324.910156 110.421875 324.910156 110.421875 L 225.34375 92.710938 L 124.363281 123.277344 Z M 39.554688 166.6875 "/><g clip-rule="nonzero" clip-path="url(#631bf8fbdd)"><path style=" stroke:none;fill-rule:nonzero;fill:#000000;fill-opacity:1;" d="M 87.125 324.84375 C 87.121094 324.84375 87.121094 324.84375 87.121094 324.84375 C 86.113281 324.84375 85.085938 325.050781 84.042969 324.992188 C 64.113281 323.839844 51.1875 311.984375 48.582031 292.273438 C 46.390625 275.683594 38.566406 167.796875 38.484375 166.707031 L 123.875 122.285156 L 225.277344 91.59375 L 325.667969 109.460938 L 325.898438 109.996094 C 327.273438 113.226562 359.597656 189.289062 359.597656 212.308594 C 359.597656 232.867188 345.878906 245.023438 320.96875 246.539062 C 320.703125 246.554688 320.433594 246.566406 320.164062 246.566406 C 300.742188 246.566406 269.953125 203.839844 257.617188 185.46875 C 254.070312 180.191406 249.878906 177.628906 244.800781 177.628906 C 242.828125 177.628906 241.007812 177.992188 239.542969 178.285156 C 236.667969 178.859375 228.480469 181.597656 218.996094 184.777344 C 212.976562 186.792969 206.246094 189.046875 199.515625 191.210938 L 193.496094 193.132812 C 176.90625 198.425781 151.84375 206.425781 148.0625 209.9375 C 144.179688 213.539062 131.734375 264.617188 125.933594 291.292969 C 121.195312 313.082031 107.410156 324.84375 87.125 324.84375 Z M 40.671875 167.320312 C 41.355469 176.738281 48.613281 276.292969 50.707031 292.113281 C 53.164062 310.714844 65.359375 322.007812 84.167969 323.097656 C 105.003906 324.3125 119.113281 312.828125 123.84375 291.078125 C 124.007812 290.304688 140.875 213.6875 146.605469 208.371094 C 150.425781 204.824219 169.808594 198.449219 192.84375 191.097656 L 198.855469 189.171875 C 205.582031 187.011719 212.304688 184.761719 218.316406 182.746094 C 228.261719 179.421875 236.117188 176.789062 239.125 176.1875 C 240.597656 175.894531 242.617188 175.488281 244.796875 175.488281 C 250.644531 175.488281 255.417969 178.363281 259.390625 184.277344 C 271.535156 202.363281 301.769531 244.425781 320.164062 244.425781 C 320.390625 244.425781 320.613281 244.417969 320.839844 244.40625 C 337.542969 243.390625 357.453125 236.996094 357.453125 212.3125 C 357.453125 190.710938 327.09375 118.332031 324.152344 111.378906 L 225.40625 93.808594 L 124.671875 124.304688 Z M 40.671875 167.320312 "/></g><path style=" stroke:none;fill-rule:nonzero;fill:#ffd33b;fill-opacity:1;" d="M 325.667969 118.808594 C 325.667969 146.566406 301.453125 169.074219 271.574219 169.074219 C 241.703125 169.074219 217.488281 146.570312 217.488281 118.808594 C 217.488281 91.046875 241.703125 68.542969 271.574219 68.542969 C 301.453125 68.542969 325.667969 91.046875 325.667969 118.808594 Z M 325.667969 118.808594 "/><path style=" stroke:none;fill-rule:nonzero;fill:#000000;fill-opacity:1;" d="M 271.578125 170.144531 C 241.160156 170.144531 216.417969 147.113281 216.417969 118.808594 C 216.417969 90.503906 241.164062 67.472656 271.578125 67.472656 C 301.996094 67.472656 326.738281 90.5 326.738281 118.808594 C 326.738281 147.113281 301.992188 170.144531 271.578125 170.144531 Z M 271.578125 69.613281 C 242.34375 69.613281 218.5625 91.683594 218.5625 118.808594 C 218.5625 145.933594 242.34375 168.003906 271.578125 168.003906 C 300.8125 168.003906 324.597656 145.933594 324.597656 118.808594 C 324.597656 91.683594 300.8125 69.613281 271.578125 69.613281 Z M 271.578125 69.613281 "/><path style=" stroke:none;fill-rule:nonzero;fill:#ffd33b;fill-opacity:1;" d="M 152.679688 168.816406 C 152.679688 197.84375 127.355469 221.378906 96.113281 221.378906 C 64.875 221.378906 39.550781 197.84375 39.550781 168.816406 C 39.550781 139.785156 64.875 116.25 96.113281 116.25 C 127.359375 116.25 152.679688 139.785156 152.679688 168.816406 Z M 152.679688 168.816406 "/><path style=" stroke:none;fill-rule:nonzero;fill:#000000;fill-opacity:1;" d="M 96.113281 222.449219 C 64.335938 222.449219 38.484375 198.386719 38.484375 168.816406 C 38.484375 139.242188 64.335938 115.179688 96.113281 115.179688 C 127.894531 115.179688 153.75 139.242188 153.75 168.816406 C 153.75 198.386719 127.894531 222.449219 96.113281 222.449219 Z M 96.113281 117.320312 C 65.515625 117.320312 40.625 140.421875 40.625 168.816406 C 40.625 197.207031 65.515625 220.308594 96.113281 220.308594 C 126.714844 220.308594 151.609375 197.207031 151.609375 168.816406 C 151.609375 140.421875 126.714844 117.320312 96.113281 117.320312 Z M 96.113281 117.320312 "/><path style=" stroke:none;fill-rule:nonzero;fill:#ffffff;fill-opacity:1;" d="M 98.625 208.066406 L 98.621094 208.066406 C 96.28125 208.066406 94.210938 206.632812 93.46875 204.414062 L 86.910156 185.988281 L 64.296875 192.503906 C 61.476562 193.304688 58.382812 191.597656 57.574219 188.792969 L 51.953125 169.246094 C 51.550781 167.851562 51.71875 166.386719 52.421875 165.117188 C 53.121094 163.851562 54.277344 162.929688 55.671875 162.53125 L 76.433594 156.5625 L 70.113281 138.78125 C 69.160156 135.917969 70.703125 132.839844 73.542969 131.894531 L 92.851562 125.464844 C 95.652344 124.535156 98.800781 126.128906 99.722656 128.902344 L 106.484375 147.929688 L 131.109375 140.851562 C 133.917969 140.042969 137.019531 141.765625 137.828125 144.570312 L 143.449219 164.117188 C 143.851562 165.511719 143.683594 166.980469 142.980469 168.246094 C 142.28125 169.515625 141.125 170.4375 139.730469 170.835938 L 116.960938 177.378906 L 123.082031 194.59375 C 123.546875 195.992188 123.441406 197.464844 122.789062 198.757812 C 122.140625 200.054688 121.023438 201.019531 119.648438 201.476562 L 100.339844 207.84375 C 99.78125 208.03125 99.207031 208.066406 98.625 208.066406 Z M 88.25 183.40625 L 95.496094 203.785156 C 95.949219 205.152344 97.207031 206.0625 98.625 206.0625 C 98.976562 206.0625 99.324219 206 99.664062 205.882812 L 118.972656 199.453125 C 119.808594 199.175781 120.484375 198.589844 120.878906 197.804688 C 121.273438 197.015625 121.335938 196.125 121.058594 195.292969 L 114.183594 175.953125 L 139.140625 168.777344 C 139.984375 168.535156 140.683594 167.980469 141.109375 167.210938 C 141.535156 166.441406 141.632812 165.554688 141.390625 164.707031 L 135.769531 145.160156 C 135.28125 143.464844 133.421875 142.421875 131.699219 142.910156 L 105.144531 150.539062 L 97.699219 129.597656 C 97.128906 127.890625 95.226562 126.925781 93.53125 127.496094 L 74.222656 133.921875 C 72.5 134.496094 71.566406 136.363281 72.140625 138.085938 L 79.21875 157.992188 L 56.265625 164.589844 C 55.421875 164.832031 54.722656 165.386719 54.296875 166.15625 C 53.871094 166.925781 53.769531 167.8125 54.011719 168.65625 L 59.632812 188.207031 C 60.121094 189.902344 61.992188 190.949219 63.707031 190.457031 Z M 88.25 183.40625 "/><path style=" stroke:none;fill-rule:nonzero;fill:#ffffff;fill-opacity:1;" d="M 273.066406 155.882812 C 270.722656 155.882812 268.652344 154.390625 267.914062 152.167969 L 261.351562 133.714844 L 238.738281 140.214844 C 235.914062 141.027344 232.824219 139.296875 232.015625 136.5 L 226.394531 116.949219 C 225.570312 114.070312 227.238281 111.058594 230.113281 110.230469 L 250.878906 104.265625 L 244.554688 86.480469 C 243.605469 83.617188 245.148438 80.535156 247.984375 79.589844 L 267.292969 73.164062 C 270.101562 72.230469 273.246094 73.828125 274.164062 76.605469 L 280.929688 95.628906 L 305.550781 88.550781 C 308.371094 87.742188 311.464844 89.46875 312.269531 92.269531 L 317.894531 111.816406 C 318.722656 114.695312 317.054688 117.707031 314.175781 118.535156 L 291.40625 125.078125 L 297.527344 142.292969 C 298.480469 145.152344 296.9375 148.234375 294.097656 149.179688 L 274.789062 155.605469 C 274.226562 155.789062 273.648438 155.882812 273.066406 155.882812 Z M 262.695312 131.101562 L 269.9375 151.472656 C 270.507812 153.179688 272.40625 154.136719 274.105469 153.574219 L 293.414062 147.144531 C 295.136719 146.574219 296.070312 144.710938 295.5 142.988281 L 288.621094 123.648438 L 313.582031 116.476562 C 315.324219 115.976562 316.332031 114.152344 315.832031 112.40625 L 310.210938 92.859375 C 309.722656 91.160156 307.855469 90.113281 306.140625 90.609375 L 279.585938 98.238281 L 272.140625 77.296875 C 271.574219 75.59375 269.675781 74.625 267.972656 75.195312 L 248.664062 81.621094 C 246.945312 82.195312 246.007812 84.0625 246.582031 85.785156 L 253.660156 105.691406 L 230.707031 112.285156 C 228.964844 112.789062 227.953125 114.613281 228.453125 116.359375 L 234.078125 135.90625 C 234.566406 137.601562 236.433594 138.652344 238.152344 138.160156 Z M 262.695312 131.101562 "/><path style=" stroke:none;fill-rule:nonzero;fill:#000000;fill-opacity:1;" d="M 257.128906 121.246094 C 257.128906 121.957031 257.058594 122.660156 256.921875 123.359375 C 256.78125 124.054688 256.574219 124.730469 256.304688 125.386719 C 256.03125 126.042969 255.699219 126.667969 255.304688 127.257812 C 254.910156 127.847656 254.460938 128.394531 253.957031 128.898438 C 253.453125 129.402344 252.90625 129.851562 252.316406 130.246094 C 251.726562 130.640625 251.101562 130.972656 250.445312 131.246094 C 249.789062 131.515625 249.109375 131.722656 248.414062 131.859375 C 247.714844 132 247.011719 132.066406 246.300781 132.066406 C 245.589844 132.066406 244.886719 132 244.1875 131.859375 C 243.492188 131.722656 242.8125 131.515625 242.15625 131.246094 C 241.5 130.972656 240.875 130.640625 240.285156 130.246094 C 239.695312 129.851562 239.148438 129.402344 238.644531 128.898438 C 238.140625 128.394531 237.691406 127.847656 237.296875 127.257812 C 236.902344 126.667969 236.570312 126.042969 236.296875 125.386719 C 236.023438 124.730469 235.820312 124.054688 235.679688 123.359375 C 235.542969 122.660156 235.472656 121.957031 235.472656 121.246094 C 235.472656 120.535156 235.542969 119.832031 235.679688 119.136719 C 235.820312 118.4375 236.023438 117.761719 236.296875 117.105469 C 236.570312 116.449219 236.902344 115.824219 237.296875 115.234375 C 237.691406 114.644531 238.140625 114.097656 238.644531 113.59375 C 239.148438 113.09375 239.695312 112.644531 240.285156 112.25 C 240.875 111.855469 241.5 111.519531 242.15625 111.25 C 242.8125 110.976562 243.492188 110.769531 244.1875 110.632812 C 244.886719 110.496094 245.589844 110.425781 246.300781 110.425781 C 247.011719 110.425781 247.714844 110.496094 248.414062 110.632812 C 249.109375 110.769531 249.789062 110.976562 250.445312 111.25 C 251.101562 111.519531 251.726562 111.855469 252.316406 112.25 C 252.90625 112.644531 253.453125 113.09375 253.957031 113.59375 C 254.460938 114.097656 254.910156 114.644531 255.304688 115.234375 C 255.699219 115.824219 256.03125 116.449219 256.304688 117.105469 C 256.574219 117.761719 256.78125 118.4375 256.921875 119.136719 C 257.058594 119.832031 257.128906 120.535156 257.128906 121.246094 Z M 257.128906 121.246094 "/><path style=" stroke:none;fill-rule:nonzero;fill:#000000;fill-opacity:1;" d="M 246.300781 133.140625 C 239.738281 133.140625 234.402344 127.804688 234.402344 121.246094 C 234.402344 114.691406 239.738281 109.351562 246.300781 109.351562 C 252.859375 109.351562 258.199219 114.691406 258.199219 121.246094 C 258.199219 127.804688 252.859375 133.140625 246.300781 133.140625 Z M 246.300781 111.492188 C 240.917969 111.492188 236.542969 115.867188 236.542969 121.246094 C 236.542969 126.625 240.921875 131 246.300781 131 C 251.679688 131 256.054688 126.625 256.054688 121.246094 C 256.054688 115.867188 251.679688 111.492188 246.300781 111.492188 Z M 246.300781 111.492188 "/><path style=" stroke:none;fill-rule:nonzero;fill:#000000;fill-opacity:1;" d="M 274.453125 91.421875 C 274.453125 92.125 274.382812 92.820312 274.246094 93.511719 C 274.109375 94.199219 273.90625 94.867188 273.636719 95.515625 C 273.367188 96.167969 273.039062 96.785156 272.648438 97.367188 C 272.257812 97.953125 271.8125 98.492188 271.316406 98.988281 C 270.820312 99.484375 270.277344 99.929688 269.695312 100.320312 C 269.109375 100.710938 268.492188 101.039062 267.84375 101.308594 C 267.195312 101.578125 266.523438 101.78125 265.835938 101.917969 C 265.144531 102.054688 264.449219 102.121094 263.746094 102.121094 C 263.042969 102.121094 262.347656 102.054688 261.65625 101.917969 C 260.96875 101.78125 260.296875 101.578125 259.648438 101.308594 C 259 101.039062 258.382812 100.710938 257.796875 100.320312 C 257.214844 99.929688 256.671875 99.484375 256.175781 98.988281 C 255.679688 98.492188 255.234375 97.953125 254.84375 97.367188 C 254.453125 96.785156 254.125 96.167969 253.855469 95.515625 C 253.585938 94.867188 253.382812 94.199219 253.246094 93.511719 C 253.109375 92.820312 253.039062 92.125 253.039062 91.421875 C 253.039062 90.71875 253.109375 90.023438 253.246094 89.335938 C 253.382812 88.644531 253.585938 87.976562 253.855469 87.328125 C 254.125 86.679688 254.453125 86.0625 254.84375 85.476562 C 255.234375 84.894531 255.679688 84.351562 256.175781 83.855469 C 256.671875 83.359375 257.214844 82.917969 257.796875 82.527344 C 258.382812 82.136719 259 81.804688 259.648438 81.535156 C 260.296875 81.269531 260.96875 81.066406 261.65625 80.929688 C 262.347656 80.792969 263.042969 80.722656 263.746094 80.722656 C 264.449219 80.722656 265.144531 80.792969 265.835938 80.929688 C 266.523438 81.066406 267.195312 81.269531 267.84375 81.535156 C 268.492188 81.804688 269.109375 82.136719 269.695312 82.527344 C 270.277344 82.917969 270.820312 83.359375 271.316406 83.855469 C 271.8125 84.351562 272.257812 84.894531 272.648438 85.476562 C 273.039062 86.0625 273.367188 86.679688 273.636719 87.328125 C 273.90625 87.976562 274.109375 88.644531 274.246094 89.335938 C 274.382812 90.023438 274.453125 90.71875 274.453125 91.421875 Z M 274.453125 91.421875 "/><path style=" stroke:none;fill-rule:nonzero;fill:#000000;fill-opacity:1;" d="M 263.746094 103.191406 C 257.25 103.191406 251.96875 97.914062 251.96875 91.421875 C 251.96875 84.929688 257.25 79.648438 263.746094 79.648438 C 270.238281 79.648438 275.523438 84.929688 275.523438 91.421875 C 275.523438 97.914062 270.238281 103.191406 263.746094 103.191406 Z M 263.746094 81.789062 C 258.433594 81.789062 254.109375 86.113281 254.109375 91.421875 C 254.109375 96.734375 258.433594 101.050781 263.746094 101.050781 C 269.058594 101.050781 273.382812 96.734375 273.382812 91.421875 C 273.382812 86.113281 269.058594 81.789062 263.746094 81.789062 Z M 263.746094 81.789062 "/><path style=" stroke:none;fill-rule:nonzero;fill:#000000;fill-opacity:1;" d="M 309.460938 106.71875 C 309.460938 112.695312 304.617188 117.539062 298.632812 117.539062 C 292.65625 117.539062 287.804688 112.695312 287.804688 106.71875 C 287.804688 100.742188 292.65625 95.894531 298.632812 95.894531 C 304.617188 95.894531 309.460938 100.742188 309.460938 106.71875 Z M 309.460938 106.71875 "/><path style=" stroke:none;fill-rule:nonzero;fill:#000000;fill-opacity:1;" d="M 298.632812 118.609375 C 292.074219 118.609375 286.734375 113.273438 286.734375 106.71875 C 286.734375 100.160156 292.074219 94.824219 298.632812 94.824219 C 305.191406 94.824219 310.53125 100.160156 310.53125 106.71875 C 310.53125 113.277344 305.191406 118.609375 298.632812 118.609375 Z M 298.632812 96.964844 C 293.25 96.964844 288.878906 101.339844 288.878906 106.71875 C 288.878906 112.09375 293.253906 116.46875 298.632812 116.46875 C 304.011719 116.46875 308.390625 112.09375 308.390625 106.71875 C 308.390625 101.339844 304.011719 96.964844 298.632812 96.964844 Z M 298.632812 96.964844 "/><path style=" stroke:none;fill-rule:nonzero;fill:#ff2273;fill-opacity:1;" d="M 296.742188 116.175781 C 296.632812 116.175781 296.519531 116.160156 296.414062 116.125 C 296.101562 116.023438 295.855469 115.789062 295.738281 115.484375 L 294.027344 110.976562 L 290.242188 107.992188 C 289.984375 107.789062 289.835938 107.480469 289.835938 107.15625 C 289.832031 106.828125 289.980469 106.519531 290.234375 106.316406 L 293.996094 103.296875 L 295.667969 98.773438 C 295.78125 98.46875 296.027344 98.230469 296.335938 98.128906 C 296.644531 98.027344 296.988281 98.070312 297.261719 98.25 L 301.292969 100.894531 L 306.113281 101.082031 C 306.4375 101.097656 306.742188 101.257812 306.933594 101.519531 C 307.125 101.78125 307.1875 102.117188 307.101562 102.433594 L 305.835938 107.085938 L 307.148438 111.726562 C 307.234375 112.039062 307.175781 112.375 306.984375 112.640625 C 306.792969 112.90625 306.492188 113.070312 306.167969 113.085938 L 301.347656 113.316406 L 297.335938 115.996094 C 297.15625 116.113281 296.949219 116.175781 296.742188 116.175781 Z M 292.625 107.144531 L 295.589844 109.480469 C 295.742188 109.597656 295.859375 109.757812 295.929688 109.941406 L 297.265625 113.46875 L 300.402344 111.375 C 300.566406 111.265625 300.753906 111.203125 300.945312 111.191406 L 304.71875 111.011719 L 303.695312 107.382812 C 303.640625 107.195312 303.640625 106.996094 303.691406 106.808594 L 304.683594 103.171875 L 300.910156 103.023438 C 300.714844 103.015625 300.527344 102.953125 300.367188 102.847656 L 297.210938 100.777344 L 295.902344 104.320312 C 295.832031 104.5 295.722656 104.660156 295.570312 104.78125 Z M 292.625 107.144531 "/><path style=" stroke:none;fill-rule:nonzero;fill:#000000;fill-opacity:1;" d="M 290.441406 135.777344 C 290.441406 136.480469 290.375 137.175781 290.238281 137.863281 C 290.097656 138.554688 289.894531 139.222656 289.628906 139.871094 C 289.359375 140.519531 289.027344 141.136719 288.636719 141.722656 C 288.246094 142.304688 287.804688 142.847656 287.304688 143.34375 C 286.808594 143.839844 286.269531 144.285156 285.683594 144.675781 C 285.097656 145.0625 284.484375 145.394531 283.832031 145.664062 C 283.183594 145.933594 282.515625 146.132812 281.824219 146.273438 C 281.136719 146.410156 280.4375 146.476562 279.734375 146.476562 C 279.03125 146.476562 278.335938 146.410156 277.648438 146.273438 C 276.957031 146.132812 276.289062 145.933594 275.636719 145.664062 C 274.988281 145.394531 274.371094 145.0625 273.789062 144.675781 C 273.203125 144.285156 272.664062 143.839844 272.164062 143.34375 C 271.667969 142.847656 271.222656 142.304688 270.832031 141.722656 C 270.441406 141.136719 270.113281 140.519531 269.84375 139.871094 C 269.574219 139.222656 269.371094 138.554688 269.234375 137.863281 C 269.097656 137.175781 269.027344 136.480469 269.027344 135.777344 C 269.027344 135.074219 269.097656 134.378906 269.234375 133.6875 C 269.371094 133 269.574219 132.332031 269.84375 131.679688 C 270.113281 131.03125 270.441406 130.414062 270.832031 129.832031 C 271.222656 129.246094 271.667969 128.707031 272.164062 128.210938 C 272.664062 127.714844 273.203125 127.269531 273.789062 126.878906 C 274.371094 126.488281 274.988281 126.160156 275.636719 125.890625 C 276.289062 125.621094 276.957031 125.417969 277.648438 125.28125 C 278.335938 125.144531 279.03125 125.074219 279.734375 125.074219 C 280.4375 125.074219 281.136719 125.144531 281.824219 125.28125 C 282.515625 125.417969 283.183594 125.621094 283.832031 125.890625 C 284.484375 126.160156 285.097656 126.488281 285.683594 126.878906 C 286.269531 127.269531 286.808594 127.714844 287.304688 128.210938 C 287.804688 128.707031 288.246094 129.246094 288.636719 129.832031 C 289.027344 130.414062 289.359375 131.03125 289.628906 131.679688 C 289.894531 132.332031 290.097656 133 290.238281 133.6875 C 290.375 134.378906 290.441406 135.074219 290.441406 135.777344 Z M 290.441406 135.777344 "/><path style=" stroke:none;fill-rule:nonzero;fill:#000000;fill-opacity:1;" d="M 279.734375 147.546875 C 273.238281 147.546875 267.957031 142.265625 267.957031 135.777344 C 267.957031 129.285156 273.238281 124.003906 279.734375 124.003906 C 286.226562 124.003906 291.511719 129.285156 291.511719 135.777344 C 291.511719 142.265625 286.226562 147.546875 279.734375 147.546875 Z M 279.734375 126.144531 C 274.421875 126.144531 270.097656 130.464844 270.097656 135.777344 C 270.097656 141.085938 274.421875 145.40625 279.734375 145.40625 C 285.046875 145.40625 289.371094 141.085938 289.371094 135.777344 C 289.371094 130.464844 285.046875 126.144531 279.734375 126.144531 Z M 279.734375 126.144531 "/><path style=" stroke:none;fill-rule:nonzero;fill:#ff2273;fill-opacity:1;" d="M 249.578125 130.246094 C 249.359375 130.246094 249.140625 130.179688 248.949219 130.042969 L 240.394531 123.835938 C 240.023438 123.5625 239.867188 123.085938 240.003906 122.648438 L 242.960938 113.234375 C 243.136719 112.671875 243.738281 112.359375 244.304688 112.535156 C 244.867188 112.714844 245.179688 113.3125 245.003906 113.878906 L 242.277344 122.554688 L 250.207031 128.3125 C 250.6875 128.660156 250.792969 129.328125 250.445312 129.808594 C 250.234375 130.09375 249.90625 130.246094 249.578125 130.246094 Z M 249.578125 130.246094 "/><path style=" stroke:none;fill-rule:nonzero;fill:#ff2273;fill-opacity:1;" d="M 249.578125 130.246094 C 249.488281 130.246094 249.398438 130.234375 249.308594 130.210938 C 248.734375 130.0625 248.394531 129.480469 248.542969 128.90625 L 251.015625 119.425781 L 243.398438 114.453125 C 242.902344 114.128906 242.765625 113.464844 243.085938 112.972656 C 243.410156 112.472656 244.078125 112.339844 244.570312 112.660156 L 252.832031 118.054688 C 253.214844 118.304688 253.398438 118.777344 253.28125 119.21875 L 250.617188 129.445312 C 250.488281 129.929688 250.054688 130.246094 249.578125 130.246094 Z M 249.578125 130.246094 "/><path style=" stroke:none;fill-rule:nonzero;fill:#000000;fill-opacity:1;" d="M 87.933594 175.742188 C 87.023438 177.910156 84.449219 180.304688 82.21875 181.058594 L 75 183.5 C 72.769531 184.253906 70.320312 183.046875 69.5625 180.820312 L 65.894531 170.109375 C 65.132812 167.882812 66.335938 165.441406 68.566406 164.6875 L 75.777344 162.25 C 78.011719 161.496094 81.511719 161.828125 83.558594 162.992188 L 87.695312 165.339844 C 89.742188 166.503906 90.671875 169.230469 89.757812 171.402344 Z M 87.933594 175.742188 "/><path style=" stroke:none;fill-rule:nonzero;fill:#000000;fill-opacity:1;" d="M 106.195312 174.710938 C 108.367188 175.625 110.761719 178.195312 111.519531 180.425781 L 113.960938 187.636719 C 114.714844 189.867188 113.507812 192.316406 111.277344 193.078125 L 100.5625 196.738281 C 98.332031 197.5 95.890625 196.300781 95.136719 194.070312 L 92.699219 186.859375 C 91.945312 184.628906 92.277344 181.128906 93.441406 179.082031 L 95.792969 174.949219 C 96.957031 172.902344 99.683594 171.972656 101.855469 172.886719 Z M 106.195312 174.710938 "/><path style=" stroke:none;fill-rule:nonzero;fill:#000000;fill-opacity:1;" d="M 187.972656 169.800781 C 188.328125 170.921875 187.707031 172.148438 186.589844 172.523438 L 173.679688 176.875 C 172.5625 177.253906 171.359375 176.640625 171.003906 175.519531 L 169.300781 170.117188 C 168.949219 168.996094 169.570312 167.769531 170.6875 167.394531 L 183.59375 163.046875 C 184.710938 162.667969 185.914062 163.28125 186.269531 164.402344 Z M 187.972656 169.800781 "/><path style=" stroke:none;fill-rule:nonzero;fill:#000000;fill-opacity:1;" d="M 201.253906 167.789062 C 200.285156 168.453125 199.195312 168.078125 198.84375 166.957031 L 197.140625 161.554688 C 196.789062 160.433594 197.457031 159.460938 198.632812 159.390625 L 212.796875 158.578125 C 213.972656 158.511719 214.136719 159 213.164062 159.664062 Z M 201.253906 167.789062 "/><path style=" stroke:none;fill-rule:nonzero;fill:#000000;fill-opacity:1;" d="M 105.167969 156.457031 C 106.082031 154.289062 108.652344 151.894531 110.886719 151.140625 L 118.101562 148.699219 C 120.332031 147.945312 122.78125 149.152344 123.542969 151.378906 L 127.207031 162.089844 C 127.972656 164.316406 126.769531 166.757812 124.539062 167.511719 L 117.328125 169.949219 C 115.09375 170.703125 111.59375 170.371094 109.542969 169.207031 L 105.40625 166.859375 C 103.359375 165.695312 102.429688 162.96875 103.34375 160.800781 Z M 105.167969 156.457031 "/><path style=" stroke:none;fill-rule:nonzero;fill:#000000;fill-opacity:1;" d="M 86.90625 157.488281 C 84.734375 156.574219 82.339844 154.003906 81.585938 151.773438 L 79.144531 144.5625 C 78.386719 142.332031 79.59375 139.882812 81.824219 139.121094 L 92.542969 135.460938 C 94.773438 134.699219 97.214844 135.898438 97.96875 138.128906 L 100.40625 145.335938 C 101.160156 147.566406 100.828125 151.066406 99.664062 153.113281 L 97.3125 157.25 C 96.152344 159.292969 93.421875 160.222656 91.25 159.3125 Z M 86.90625 157.488281 "/><path style=" stroke:none;fill-rule:nonzero;fill:#00bfc3;fill-opacity:1;" d="M 174.371094 181.484375 C 173.917969 181.484375 173.496094 181.191406 173.351562 180.738281 C 173.171875 180.175781 173.480469 179.574219 174.046875 179.394531 L 188.675781 174.703125 C 189.246094 174.527344 189.84375 174.832031 190.023438 175.394531 C 190.207031 175.957031 189.894531 176.5625 189.332031 176.742188 L 174.699219 181.433594 C 174.589844 181.464844 174.480469 181.484375 174.371094 181.484375 Z M 174.371094 181.484375 "/><path style=" stroke:none;fill-rule:nonzero;fill:#00bfc3;fill-opacity:1;" d="M 202.210938 172.921875 C 201.75 172.921875 201.328125 172.628906 201.183594 172.167969 C 201.011719 171.601562 201.332031 171.003906 201.894531 170.828125 L 216.171875 166.464844 C 216.746094 166.289062 217.335938 166.609375 217.511719 167.171875 C 217.683594 167.738281 217.367188 168.335938 216.800781 168.507812 L 202.523438 172.875 C 202.417969 172.910156 202.3125 172.921875 202.210938 172.921875 Z M 202.210938 172.921875 "/><path style=" stroke:none;fill-rule:nonzero;fill:#00bfc3;fill-opacity:1;" d="M 266.253906 98.949219 C 266.117188 98.949219 265.980469 98.921875 265.847656 98.871094 C 261.390625 97.058594 256.9375 95.027344 255.691406 91.910156 C 255.210938 90.710938 255.257812 89.46875 255.820312 88.21875 C 256.425781 86.882812 257.390625 86.386719 258.101562 86.203125 C 260.464844 85.59375 263.207031 87.578125 263.511719 87.804688 C 263.984375 88.15625 264.082031 88.824219 263.734375 89.296875 C 263.378906 89.769531 262.714844 89.871094 262.234375 89.519531 C 261.667969 89.101562 259.800781 87.964844 258.632812 88.277344 C 258.394531 88.339844 258.046875 88.492188 257.769531 89.101562 C 257.445312 89.820312 257.414062 90.460938 257.679688 91.117188 C 258.6875 93.648438 263.671875 95.675781 266.652344 96.886719 C 267.199219 97.109375 267.464844 97.734375 267.242188 98.28125 C 267.074219 98.695312 266.675781 98.949219 266.253906 98.949219 Z M 266.253906 98.949219 "/><path style=" stroke:none;fill-rule:nonzero;fill:#00bfc3;fill-opacity:1;" d="M 266.253906 98.949219 C 266.085938 98.949219 265.914062 98.910156 265.757812 98.828125 C 265.230469 98.550781 265.027344 97.90625 265.304688 97.382812 C 266.792969 94.53125 269.292969 89.765625 268.429688 87.179688 C 268.207031 86.511719 267.769531 86.039062 267.058594 85.703125 C 266.445312 85.414062 266.085938 85.523438 265.859375 85.628906 C 264.855469 86.113281 264.117188 88.046875 263.917969 88.902344 C 263.785156 89.476562 263.214844 89.84375 262.632812 89.703125 C 262.058594 89.570312 261.699219 88.992188 261.832031 88.417969 C 261.917969 88.046875 262.738281 84.757812 264.933594 83.703125 C 265.589844 83.386719 266.648438 83.140625 267.980469 83.769531 C 269.21875 84.359375 270.050781 85.277344 270.460938 86.503906 C 271.523438 89.683594 269.4375 94.113281 267.203125 98.375 C 267.007812 98.738281 266.636719 98.949219 266.253906 98.949219 Z M 266.253906 98.949219 "/><path style=" stroke:none;fill-rule:nonzero;fill:#00bfc3;fill-opacity:1;" d="M 278.515625 142.460938 C 278.296875 142.460938 278.074219 142.390625 277.890625 142.257812 L 272.699219 138.503906 C 272.351562 138.253906 272.1875 137.820312 272.28125 137.402344 L 273.683594 131.152344 C 273.761719 130.800781 274.011719 130.515625 274.351562 130.386719 L 280.945312 127.894531 C 281.28125 127.765625 281.65625 127.816406 281.949219 128.027344 L 287.144531 131.78125 C 287.492188 132.03125 287.65625 132.464844 287.5625 132.882812 L 286.15625 139.132812 C 286.078125 139.484375 285.828125 139.773438 285.492188 139.898438 L 278.898438 142.394531 C 278.773438 142.4375 278.644531 142.460938 278.515625 142.460938 Z M 274.523438 137.183594 L 278.679688 140.1875 L 284.195312 138.101562 L 285.316406 133.101562 L 281.160156 130.097656 L 275.644531 132.183594 Z M 274.523438 137.183594 "/><path style=" stroke:none;fill-rule:nonzero;fill:#ff2273;fill-opacity:1;" d="M 157.371094 136.1875 C 155.992188 136.1875 154.714844 135.292969 154.296875 133.90625 C 153.78125 132.210938 154.742188 130.417969 156.441406 129.902344 L 203.3125 115.746094 C 205 115.238281 206.804688 116.191406 207.316406 117.894531 C 207.832031 119.589844 206.867188 121.382812 205.171875 121.894531 L 158.300781 136.050781 C 157.992188 136.144531 157.679688 136.1875 157.371094 136.1875 Z M 157.371094 136.1875 "/><path style=" stroke:none;fill-rule:nonzero;fill:#00bfc3;fill-opacity:1;" d="M 166.789062 144.691406 C 165.410156 144.691406 164.136719 143.800781 163.714844 142.414062 C 163.203125 140.71875 164.160156 138.925781 165.855469 138.410156 L 198.105469 128.625 C 199.785156 128.109375 201.59375 129.066406 202.109375 130.761719 C 202.625 132.460938 201.667969 134.253906 199.96875 134.765625 L 167.722656 144.554688 C 167.414062 144.648438 167.097656 144.691406 166.789062 144.691406 Z M 166.789062 144.691406 "/><path style=" stroke:none;fill-rule:nonzero;fill:#ffffff;fill-opacity:1;" d="M 78.320312 313.867188 C 74.105469 313.816406 68.957031 310.550781 66.527344 308.652344 C 62.515625 305.539062 59.566406 300.457031 58.1875 295.628906 C 57.085938 291.792969 57.433594 280.476562 64.648438 282.917969 C 68.542969 284.238281 69.285156 291.210938 71.214844 294.316406 C 73.902344 298.625 77.925781 301.964844 81.925781 304.976562 C 84.113281 306.625 84.511719 310.128906 82.660156 312.148438 C 81.503906 313.410156 79.988281 313.882812 78.320312 313.867188 Z M 78.320312 313.867188 "/><path style=" stroke:none;fill-rule:nonzero;fill:#000000;fill-opacity:1;" d="M 78.40625 314.167969 L 78.308594 314.167969 C 73.015625 314.167969 67.015625 310.007812 65.867188 309.113281 C 61.980469 306.09375 58.726562 301.210938 57.15625 295.730469 C 56.433594 293.214844 56.128906 286.902344 58.695312 283.5 C 60.164062 281.546875 62.390625 280.984375 64.992188 281.859375 C 68.089844 282.90625 69.390625 286.644531 70.539062 289.921875 C 71.058594 291.402344 71.546875 292.808594 72.125 293.738281 C 74.707031 297.882812 78.671875 301.179688 82.570312 304.121094 C 83.878906 305.105469 84.722656 306.664062 84.878906 308.394531 C 85.035156 310.074219 84.511719 311.324219 83.449219 312.484375 C 82.191406 313.855469 80.496094 314.167969 78.40625 314.167969 Z M 62.757812 283.648438 C 61.800781 283.648438 61.03125 284.054688 60.40625 284.886719 C 58.582031 287.300781 58.484375 292.777344 59.21875 295.335938 C 60.667969 300.394531 63.644531 305.078125 67.1875 307.828125 C 70.101562 310.101562 75.160156 312.832031 78.726562 312.832031 L 79.1875 312.832031 C 79.1875 312.832031 81.417969 312.367188 82.261719 311.445312 C 82.917969 310.726562 83.042969 309.683594 82.945312 308.601562 C 82.839844 307.472656 82.210938 306.460938 81.382812 305.839844 C 77.316406 302.777344 73.125 299.328125 70.355469 294.882812 C 69.652344 293.753906 69.101562 292.246094 68.542969 290.652344 C 67.558594 287.839844 66.425781 284.648438 64.320312 283.933594 C 63.757812 283.746094 63.226562 283.648438 62.757812 283.648438 Z M 62.757812 283.648438 "/><path style=" stroke:none;fill-rule:nonzero;fill:#ffffff;fill-opacity:1;" d="M 346.003906 197.019531 C 348.621094 200.339844 349.328125 206.394531 349.382812 209.484375 C 349.484375 214.5625 347.386719 220.050781 344.496094 224.152344 C 342.199219 227.417969 333.160156 234.25 330.507812 227.089844 C 329.078125 223.230469 334.046875 218.277344 335.25 214.824219 C 336.910156 210.027344 336.976562 204.796875 336.800781 199.785156 C 336.703125 197.042969 339.179688 194.539062 341.929688 194.714844 C 343.632812 194.820312 344.964844 195.707031 346.003906 197.019531 Z M 346.003906 197.019531 "/><path style=" stroke:none;fill-rule:nonzero;fill:#000000;fill-opacity:1;" d="M 334.585938 231.308594 C 332.917969 231.308594 330.679688 230.640625 329.503906 227.460938 C 328.367188 224.386719 330.441406 221.042969 332.273438 218.09375 C 333.097656 216.761719 333.875 215.503906 334.234375 214.46875 C 335.835938 209.847656 335.898438 204.695312 335.726562 199.820312 C 335.671875 198.257812 336.300781 196.679688 337.449219 195.484375 C 338.671875 194.222656 340.351562 193.53125 341.996094 193.644531 C 343.878906 193.761719 345.515625 194.675781 346.84375 196.351562 C 350.132812 200.523438 350.429688 208.007812 350.453125 209.460938 C 350.550781 214.382812 348.65625 220.105469 345.371094 224.769531 C 343.816406 226.980469 338.902344 231.308594 334.585938 231.308594 Z M 341.832031 196.71875 C 340.679688 196.71875 339.722656 196.6875 338.992188 197.441406 C 338.242188 198.21875 337.835938 198.992188 337.867188 199.980469 C 338.046875 205.066406 337.972656 210.339844 336.257812 215.292969 C 335.820312 216.550781 334.980469 217.84375 334.089844 219.277344 C 332.519531 221.8125 330.738281 224.65625 331.511719 226.746094 C 332.128906 228.417969 333.109375 229.183594 334.585938 229.183594 C 337.632812 229.183594 342.039062 225.785156 343.617188 223.546875 C 346.648438 219.242188 348.402344 213.992188 348.308594 209.507812 C 348.242188 205.808594 347.378906 200.964844 345.160156 198.152344 C 344.210938 196.953125 343.128906 196.71875 341.855469 196.71875 C 341.847656 196.71875 341.84375 196.71875 341.832031 196.71875 Z M 341.832031 196.71875 "/></g></svg>